<svg width="42" height="40" viewBox="0 0 42 40" fill="none" xmlns="http://www.w3.org/2000/svg">
<path d="M17.2408 34.0811C15.1707 33.7888 13.1586 33.1762 11.2769 32.2651L1.57779 34.3287L4.26053 26.2805C-0.53538 19.1878 1.31777 10.0355 8.59417 4.87227C15.8706 -0.288898 26.3209 0.134149 33.038 5.86282C36.2676 8.61778 38.1538 12.1879 38.6305 15.8942" stroke="#623BFF" stroke-width="2" stroke-linecap="round" stroke-linejoin="round"/>
<path d="M32.5324 38.4559L39.4456 31.6789C39.8695 31.2675 40.2068 30.7754 40.4374 30.2315C40.668 29.6877 40.7873 29.1031 40.7882 28.5124C40.7892 27.9216 40.6718 27.3367 40.443 26.7921C40.2141 26.2475 39.8785 25.7542 39.4559 25.3415C38.5936 24.4981 37.436 24.0249 36.2299 24.0226C35.0237 24.0203 33.8643 24.4891 32.9988 25.3291L32.5365 25.7831L32.0763 25.3291C31.2141 24.4864 30.057 24.0135 28.8513 24.0112C27.6457 24.0089 26.4867 24.4773 25.6213 25.3167C25.1972 25.728 24.8598 26.22 24.629 26.7638C24.3982 27.3076 24.2788 27.8921 24.2776 28.4828C24.2764 29.0735 24.3937 29.6585 24.6223 30.2032C24.851 30.7479 25.1864 31.2413 25.6089 31.6542L32.5324 38.4559Z" stroke="#623BFF" stroke-opacity="0.5" stroke-width="2" stroke-linecap="round" stroke-linejoin="round"/>
</svg>
