<svg width="29" height="29" viewBox="0 0 29 29" fill="none" xmlns="http://www.w3.org/2000/svg">
<path d="M21.1667 27.8334V19.8334C21.1667 17.3187 21.1667 16.0627 20.3854 15.2814C19.6041 14.5001 18.3481 14.5001 15.8334 14.5001H13.1667C10.6521 14.5001 9.39607 14.5001 8.61474 15.2814C7.8334 16.0627 7.8334 17.3187 7.8334 19.8334V27.8334" stroke="#623BFF" stroke-width="2"/>
<path opacity="0.5" d="M26.5001 27.8333V8.86263C26.5001 7.07596 26.5001 6.1813 26.0254 5.49597C25.5507 4.81063 24.7134 4.49597 23.0387 3.8693C19.7654 2.6413 18.1294 2.02797 16.9814 2.82263C15.8334 3.61997 15.8334 5.36663 15.8334 8.86263V14.5" stroke="#623BFF" stroke-width="2"/>
<path opacity="0.5" d="M2.83325 9.16656C2.83325 9.43178 2.9386 9.68614 3.12614 9.87367C3.31368 10.0612 3.56803 10.1666 3.83325 10.1666C4.09846 10.1666 4.35282 10.0612 4.54035 9.87367C4.72789 9.68614 4.83325 9.43178 4.83325 9.16656H2.83325ZM10.8332 9.16656C10.8332 9.43178 10.9386 9.68614 11.1261 9.87367C11.3137 10.0612 11.568 10.1666 11.8332 10.1666C12.0985 10.1666 12.3528 10.0612 12.5404 9.87367C12.7279 9.68614 12.8332 9.43178 12.8332 9.16656H10.8332ZM6.83325 3.83323C6.83325 4.09845 6.9386 4.3528 7.12614 4.54034C7.31368 4.72787 7.56803 4.83323 7.83325 4.83323C8.09846 4.83323 8.35282 4.72787 8.54035 4.54034C8.72789 4.3528 8.83325 4.09845 8.83325 3.83323H6.83325ZM8.83325 1.16656C8.83325 0.901348 8.72789 0.646995 8.54035 0.459458C8.35282 0.271922 8.09846 0.166565 7.83325 0.166565C7.56803 0.166565 7.31368 0.271922 7.12614 0.459458C6.9386 0.646995 6.83325 0.901348 6.83325 1.16656H8.83325ZM3.49991 27.8332V14.4999H1.49991V27.8332H3.49991ZM7.83325 10.1666C9.11858 10.1666 9.98258 10.1692 10.6266 10.2559C11.2412 10.3386 11.5052 10.4812 11.6786 10.6559L13.0919 9.2399C12.4852 8.63323 11.7292 8.38657 10.8919 8.27323C10.0839 8.1639 9.06258 8.16656 7.83325 8.16656V10.1666ZM14.1666 14.4999C14.1666 13.2706 14.1692 12.2492 14.0599 11.4412C13.9479 10.6039 13.6999 9.84657 13.0919 9.2399L11.6786 10.6559C11.8519 10.8292 11.9946 11.0919 12.0786 11.7079C12.1639 12.3506 12.1666 13.2146 12.1666 14.4999H14.1666ZM7.83325 8.16656C6.60391 8.16656 5.58258 8.1639 4.77458 8.27323C3.93725 8.38523 3.18125 8.63323 2.57458 9.2399L3.98791 10.6546C4.16125 10.4812 4.42525 10.3386 5.04125 10.2546C5.68391 10.1692 6.54791 10.1666 7.83325 10.1666V8.16656ZM3.49991 14.4999C3.49991 13.2146 3.50258 12.3506 3.58925 11.7066C3.67191 11.0919 3.81325 10.8279 3.98791 10.6546L2.57325 9.24123C1.96658 9.8479 1.71991 10.6039 1.60658 11.4412C1.49725 12.2492 1.49991 13.2706 1.49991 14.4999H3.49991ZM4.83325 9.16656V7.16656H2.83325V9.16656H4.83325ZM6.49991 5.4999H9.16658V3.4999H6.49991V5.4999ZM10.8332 7.16656V9.16656H12.8332V7.16656H10.8332ZM9.16658 5.4999C9.82391 5.4999 10.2159 5.50257 10.4959 5.5399C10.5781 5.5484 10.6588 5.56767 10.7359 5.59723L12.1492 4.1839C11.7372 3.77057 11.2372 3.62123 10.7626 3.55723C10.3172 3.49723 9.76658 3.4999 9.16658 3.4999V5.4999ZM12.8332 7.16656C12.8332 6.56657 12.8359 6.0159 12.7759 5.57057C12.7119 5.0959 12.5626 4.5959 12.1492 4.1839L10.7359 5.59723L10.7372 5.60123C10.766 5.67715 10.7848 5.75648 10.7932 5.83723C10.8306 6.11723 10.8332 6.50923 10.8332 7.16656H12.8332ZM4.83325 7.16656C4.83325 6.50923 4.83591 6.11723 4.87325 5.83723C4.88175 5.75506 4.90102 5.67437 4.93058 5.59723L3.51725 4.1839C3.10391 4.5959 2.95458 5.0959 2.89058 5.57057C2.83058 6.0159 2.83325 6.56657 2.83325 7.16656H4.83325ZM6.49991 3.4999C5.89991 3.4999 5.34925 3.49723 4.90391 3.55723C4.42925 3.62123 3.92925 3.77057 3.51725 4.1839L4.93058 5.59723L4.93458 5.5959C5.0105 5.56713 5.08983 5.54831 5.17058 5.5399C5.45058 5.50257 5.84258 5.4999 6.49991 5.4999V3.4999ZM8.83325 3.83323V1.16656H6.83325V3.83323H8.83325Z" fill="#623BFF"/>
<path d="M27.8333 27.8331H1.16666" stroke="#623BFF" stroke-width="2" stroke-linecap="round"/>
<path opacity="0.5" d="M11.8334 18.5001H17.1667M11.8334 22.5001H17.1667" stroke="#623BFF" stroke-width="2" stroke-linecap="round"/>
</svg>
