<svg width="22" height="22" viewBox="0 0 22 22" fill="none" xmlns="http://www.w3.org/2000/svg">
<path d="M8.6578 11L0.460079 2.80228C0.153362 2.49556 -9.20211e-08 2.1052 -7.13011e-08 1.63118C-5.05811e-08 1.15716 0.153362 0.766792 0.460079 0.460074C0.766796 0.153357 1.15716 -9.11069e-07 1.63118 -8.90349e-07C2.1052 -8.69629e-07 2.49557 0.153357 2.80228 0.460075L11 8.65779L19.1977 0.460075C19.5044 0.153358 19.8948 -9.20211e-08 20.3688 -7.13011e-08C20.8428 -5.05811e-08 21.2332 0.153358 21.5399 0.460075C21.8466 0.766793 22 1.15716 22 1.63118C22 2.1052 21.8466 2.49556 21.5399 2.80228L13.3422 11L21.5399 19.1977C21.8466 19.5044 22 19.8948 22 20.3688C22 20.8428 21.8466 21.2332 21.5399 21.5399C21.2332 21.8466 20.8428 22 20.3688 22C19.8948 22 19.5044 21.8466 19.1977 21.5399L11 13.3422L2.80228 21.5399C2.49557 21.8466 2.1052 22 1.63118 22C1.15716 22 0.766795 21.8466 0.460078 21.5399C0.153361 21.2332 -9.11069e-07 20.8428 -8.90349e-07 20.3688C-8.69629e-07 19.8948 0.153361 19.5044 0.460078 19.1977L8.6578 11Z" fill="#623BFF"/>
</svg>
