<svg width="15" height="16" viewBox="0 0 15 16" fill="none" xmlns="http://www.w3.org/2000/svg">
<path d="M10.3353 16C8.64143 16 7.1342 15.5037 5.81358 14.5111C4.49297 13.5185 3.55992 12.237 3.01445 10.6667H0.861274C0.617247 10.6667 0.412552 10.5813 0.247188 10.4107C0.0818237 10.24 -0.000571201 10.029 2.98018e-06 9.77778C2.98018e-06 9.52593 0.0826851 9.31467 0.248049 9.144C0.413413 8.97333 0.617822 8.8883 0.861274 8.88889H2.62688C2.59817 8.72593 2.58382 8.57778 2.58382 8.44444V7.55556C2.58382 7.42222 2.59817 7.27407 2.62688 7.11111H0.861274C0.617247 7.11111 0.412552 7.02578 0.247188 6.85511C0.0818237 6.68444 -0.000571201 6.47348 2.98018e-06 6.22222C2.98018e-06 5.97037 0.0826851 5.75911 0.248049 5.58844C0.413413 5.41778 0.617822 5.33274 0.861274 5.33333H3.01445C3.55992 3.76296 4.49297 2.48148 5.81358 1.48889C7.1342 0.496296 8.64143 0 10.3353 0C11.1248 0 11.8749 0.111111 12.5858 0.333333C13.2966 0.555556 13.9603 0.874074 14.577 1.28889C14.8354 1.46667 14.9755 1.71852 14.9973 2.04444C15.0191 2.37037 14.9077 2.65926 14.6631 2.91111C14.4909 3.08889 14.2721 3.19259 14.0069 3.22222C13.7416 3.25185 13.4867 3.19259 13.2421 3.04444C12.8114 2.79259 12.3521 2.59259 11.864 2.44444C11.376 2.2963 10.8664 2.22222 10.3353 2.22222C9.25867 2.22222 8.27912 2.50756 7.3966 3.07822C6.51409 3.64889 5.84287 4.40059 5.38295 5.33333H9.47399C9.71801 5.33333 9.92271 5.41867 10.0881 5.58933C10.2534 5.76 10.3358 5.97096 10.3353 6.22222C10.3353 6.47407 10.2526 6.68533 10.0872 6.856C9.92185 7.02667 9.71744 7.1117 9.47399 7.11111H4.82312C4.79441 7.27407 4.77288 7.42222 4.75853 7.55556C4.74417 7.68889 4.737 7.83704 4.737 8C4.737 8.16296 4.74417 8.31111 4.75853 8.44444C4.77288 8.57778 4.79441 8.72593 4.82312 8.88889H9.47399C9.71801 8.88889 9.92271 8.97422 10.0881 9.14489C10.2534 9.31556 10.3358 9.52652 10.3353 9.77778C10.3353 10.0296 10.2526 10.2409 10.0872 10.4116C9.92185 10.5822 9.71744 10.6673 9.47399 10.6667H5.38295C5.84229 11.6 6.51322 12.352 7.39574 12.9227C8.27826 13.4933 9.2581 13.7784 10.3353 13.7778C10.852 13.7778 11.3616 13.7037 11.864 13.5556C12.3664 13.4074 12.8258 13.2074 13.2421 12.9556C13.4861 12.8074 13.7373 12.7443 13.9957 12.7662C14.254 12.7881 14.4765 12.8957 14.6631 13.0889C14.9072 13.3407 15.0186 13.6296 14.9973 13.9556C14.9761 14.2815 14.836 14.5333 14.577 14.7111C13.9598 15.1259 13.2957 15.4444 12.5849 15.6667C11.8741 15.8889 11.1242 16 10.3353 16Z" fill="#623BFF"/>
</svg>
