<svg width="19" height="16" viewBox="0 0 19 16" fill="none" xmlns="http://www.w3.org/2000/svg">
<path d="M14.6768 6.89815C14.9303 7.34259 15.119 7.80556 15.2427 8.28704C15.3664 8.76852 15.4313 9.26543 15.4375 9.77778V10.7315L9.5 13.7037L3.5625 10.7315C3.5625 10.3611 3.56559 10.0154 3.57178 9.69444C3.57796 9.37346 3.60579 9.06173 3.65527 8.75926C3.70475 8.45679 3.77897 8.15432 3.87793 7.85185C3.97689 7.54938 4.12533 7.23148 4.32324 6.89815L2.375 5.92593V11.3611C2.55436 11.4228 2.71517 11.5093 2.85742 11.6204C2.99967 11.7315 3.12646 11.8611 3.23779 12.0093C3.34912 12.1574 3.42952 12.3179 3.479 12.4907C3.52848 12.6636 3.55632 12.8457 3.5625 13.037V16H0V13.037C0 12.8519 0.027832 12.6728 0.0834961 12.5C0.13916 12.3272 0.219564 12.1636 0.324707 12.0093C0.42985 11.8549 0.553548 11.7253 0.695801 11.6204C0.838053 11.5154 1.00195 11.429 1.1875 11.3611V5.33333L0 4.74074L9.5 0L19 4.74074L14.6768 6.89815ZM2.375 13.037C2.375 12.8765 2.31624 12.7377 2.19873 12.6204C2.08122 12.5031 1.94206 12.4444 1.78125 12.4444C1.62044 12.4444 1.48128 12.5031 1.36377 12.6204C1.24626 12.7377 1.1875 12.8765 1.1875 13.037V14.8148H2.375V13.037ZM2.65332 4.74074L9.5 8.15741L16.3467 4.74074L9.5 1.32407L2.65332 4.74074ZM14.25 10C14.25 9.52469 14.2036 9.08333 14.1108 8.67593C14.0181 8.26852 13.8542 7.85185 13.6191 7.42593L9.5 9.48148L5.38086 7.42593C5.17676 7.78395 5.02214 8.16049 4.91699 8.55556C4.81185 8.95062 4.75619 9.35802 4.75 9.77778V10L9.5 12.3704L14.25 10Z" fill="#623BFF"/>
</svg>
