<svg width="19" height="19" viewBox="0 0 19 19" fill="none" xmlns="http://www.w3.org/2000/svg">
<path d="M9.4014 0.000468311C9.34882 0.00095288 9.2964 0.00167972 9.2437 0.00301229C7.712 0.0423431 6.16851 0.453379 4.74972 1.27246C0.209256 3.89358 -1.34853 9.7099 1.27282 14.2498C3.89418 18.7897 9.71099 20.3488 14.2514 17.7276C17.3892 15.9161 19.1015 12.5785 18.9953 9.19088C18.8514 11.8498 17.5456 14.3828 15.3204 16.0303C14.8748 16.4263 14.3902 16.7759 13.874 17.0739C9.68696 19.4911 4.34398 18.0592 1.92661 13.8725C-0.490808 9.68579 0.940012 4.34326 5.12707 1.92606C6.56637 1.09519 8.14258 0.719488 9.68923 0.753811C12.2457 0.810344 14.7221 1.98825 16.3703 4.08643L15.0541 5.01648C13.7105 3.28677 11.6614 2.32713 9.55923 2.31097C9.52046 2.31065 9.48209 2.31049 9.44312 2.31097C9.40419 2.31138 9.36465 2.31251 9.32576 2.31348C8.19476 2.34243 7.05527 2.6452 6.00794 3.24983C2.65643 5.18463 1.50475 9.48146 3.43973 12.8327C5.37471 16.1839 9.67186 17.3355 13.0235 15.4006C15.098 14.2029 16.3294 12.1006 16.5079 9.87735C16.0018 11.7094 14.7988 13.3802 13.0575 14.4883L13.055 14.4895L13.0411 14.4984C12.9125 14.586 12.7808 14.6689 12.6461 14.7469C9.64779 16.4779 5.82447 15.4534 4.09343 12.4553C2.36239 9.45736 3.38699 5.63435 6.38525 3.90351C7.32217 3.36257 8.33945 3.09097 9.34846 3.06432C11.285 3.01319 13.1906 3.8662 14.4356 5.45308L12.8265 6.59004C12.0095 5.60798 10.8051 5.06405 9.57179 5.05436C9.52454 5.05396 9.47769 5.05436 9.43044 5.05557C8.74249 5.07302 8.05026 5.25727 7.41372 5.6247C5.37693 6.80058 4.67541 9.41552 5.85137 11.4522C7.02736 13.4887 9.64379 14.1902 11.6806 13.0143C12.5386 12.519 13.1596 11.7686 13.5029 10.9133C12.7431 11.7639 11.7113 12.4029 10.517 12.6963L10.5119 12.6977C8.99724 13.1333 7.3298 12.5032 6.50511 11.0748C5.53306 9.39145 6.10753 7.2503 7.79107 6.27842C8.3172 5.97464 8.88723 5.82155 9.45314 5.80637C10.4894 5.77871 11.5086 6.21414 12.2069 7.02789L10.5511 8.19772C10.3291 8.00405 10.0397 7.88598 9.72202 7.88598C9.02429 7.88598 8.45867 8.45159 8.45867 9.14917C8.45867 9.84679 9.02421 10.4124 9.72198 10.4124C10.4197 10.4124 10.9852 9.84675 10.9852 9.14913C10.9852 9.1012 10.9828 9.05435 10.9776 9.0078L15.8275 6.69349L15.9903 6.62283L15.9879 6.61653L18.5018 5.41641L18.8754 5.2372L18.662 4.88137L17.8556 3.53366L17.6474 3.18538L17.3142 3.42011L16.9873 3.65101C15.1337 1.27404 12.2971 -0.0256984 9.4014 0.000468311Z" fill="#623BFF"/>
</svg>
