<svg width="21" height="27" viewBox="0 0 21 27" fill="none" xmlns="http://www.w3.org/2000/svg">
<path d="M9.12847 14.3654L7.33245 12.5367C7.07121 12.2755 6.76121 12.1448 6.40244 12.1448C6.04367 12.1448 5.73323 12.2755 5.47112 12.5367C5.20988 12.7979 5.07361 13.1084 5.06229 13.468C5.05096 13.8277 5.17636 14.1377 5.43847 14.398L8.21413 17.1737C8.47537 17.4349 8.78015 17.5656 9.12847 17.5656C9.47679 17.5656 9.78157 17.4349 10.0428 17.1737L15.5941 11.6224C15.8554 11.3611 15.986 11.0511 15.986 10.6924C15.986 10.3336 15.8554 10.0231 15.5941 9.76104C15.3329 9.4998 15.0225 9.36918 14.6628 9.36918C14.3032 9.36918 13.9932 9.4998 13.7328 9.76104L9.12847 14.3654ZM10.5 26.415H10.1734C10.0646 26.415 9.96661 26.3933 9.87953 26.3497C7.02767 25.4571 4.67652 23.6881 2.82608 21.0426C0.975637 18.3972 0.050415 15.4748 0.050415 12.2755V6.10369C0.050415 5.55945 0.208465 5.06962 0.524564 4.63423C0.840663 4.19883 1.24863 3.88316 1.74847 3.68723L9.58564 0.748296C9.89042 0.639447 10.1952 0.585022 10.5 0.585022C10.8048 0.585022 11.1095 0.639447 11.4143 0.748296L19.2515 3.68723C19.7522 3.88316 20.1606 4.19883 20.4767 4.63423C20.7928 5.06962 20.9504 5.55945 20.9495 6.10369V12.2755C20.9495 15.4756 20.0243 18.3985 18.1739 21.0439C16.3234 23.6894 13.9723 25.458 11.1204 26.3497C11.0116 26.3933 10.8048 26.415 10.5 26.415ZM10.5 23.77C12.764 23.0516 14.6363 21.6148 16.1166 19.4595C17.597 17.3043 18.3371 14.9096 18.3371 12.2755V6.10369L10.5 3.16476L2.66281 6.10369V12.2755C2.66281 14.9096 3.40298 17.3043 4.88334 19.4595C6.36369 21.6148 8.2359 23.0516 10.5 23.77Z" fill="#623BFF"/>
</svg>
