<svg fill="none" xmlns="http://www.w3.org/2000/svg">
<g filter="url(#filter0_d_1121_4265)">
<path d="M69 40C69 59.8823 52.8823 76 33 76L-7.62939e-06 76L-9.85264e-07 1.59722e-06L33 4.48217e-06C52.8823 6.22034e-06 69 16.1178 69 36L69 40Z" fill="white"/>
</g>
<path d="M42 40.3422L33.8023 48.5399C33.4956 48.8466 33.1052 49 32.6312 49C32.1572 49 31.7668 48.8466 31.4601 48.5399C31.1534 48.2332 31 47.8428 31 47.3688C31 46.8948 31.1534 46.5044 31.4601 46.1977L39.6578 38L31.4601 29.8023C31.1534 29.4956 31 29.1052 31 28.6312C31 28.1572 31.1534 27.7668 31.4601 27.4601C31.7668 27.1534 32.1572 27 32.6312 27C33.1052 27 33.4956 27.1534 33.8023 27.4601L42 35.6578L50.1977 27.4601C50.5044 27.1534 50.8948 27 51.3688 27C51.8428 27 52.2332 27.1534 52.5399 27.4601C52.8466 27.7668 53 28.1572 53 28.6312C53 29.1052 52.8466 29.4956 52.5399 29.8023L44.3422 38L52.5399 46.1977C52.8466 46.5044 53 46.8948 53 47.3688C53 47.8428 52.8466 48.2332 52.5399 48.5399C52.2332 48.8466 51.8428 49 51.3688 49C50.8948 49 50.5044 48.8466 50.1977 48.5399L42 40.3422Z" fill="#623BFF"/>
<defs>
<filter id="filter0_d_1121_4265" x="-4" y="0"  filterUnits="userSpaceOnUse" color-interpolation-filters="sRGB">
<feFlood flood-opacity="0" result="BackgroundImageFix"/>
<feColorMatrix in="SourceAlpha" type="matrix" values="0 0 0 0 0 0 0 0 0 0 0 0 0 0 0 0 0 0 127 0" result="hardAlpha"/>
<feOffset dy="4"/>
<feGaussianBlur stdDeviation="2"/>
<feComposite in2="hardAlpha" operator="out"/>
<feColorMatrix type="matrix" values="0 0 0 0 0 0 0 0 0 0 0 0 0 0 0 0 0 0 0.1 0"/>
<feBlend mode="normal" in2="BackgroundImageFix" result="effect1_dropShadow_1121_4265"/>
<feBlend mode="normal" in="SourceGraphic" in2="effect1_dropShadow_1121_4265" result="shape"/>
</filter>
</defs>
</svg>
